<svg xmlns="http://www.w3.org/2000/svg" width="42" height="35.2" viewBox="0 0 42 35.2">
  <g id="XMLID_2_" transform="translate(0 0)">
    <path id="XMLID_7_" d="M5.266,117.438H40.7a1.138,1.138,0,0,1,.919.518A2.021,2.021,0,0,1,42,119.19V131.5H36.734v-7.075H5.266V131.5H0V98.052a2.021,2.021,0,0,1,.386-1.234A1.138,1.138,0,0,1,1.3,96.3H3.9a1.138,1.138,0,0,1,.919.518,2.021,2.021,0,0,1,.386,1.234v19.385Zm11.763-8.817A8.556,8.556,0,0,0,15.5,103.6a4.374,4.374,0,0,0-3.741-2.05,4.72,4.72,0,0,0-3.741,2.05A7.877,7.877,0,0,0,6.5,108.621a8.556,8.556,0,0,0,1.526,5.025,4.374,4.374,0,0,0,3.741,2.05,4.72,4.72,0,0,0,3.741-2.05A7.9,7.9,0,0,0,17.03,108.621ZM42,115.7v-1.741a12.364,12.364,0,0,0-2.289-7.494,6.743,6.743,0,0,0-5.578-3.075H19.7a1.138,1.138,0,0,0-.919.518,2.021,2.021,0,0,0-.386,1.234v10.569H42Z" transform="translate(0 -96.3)" fill="#333"/>
  </g>
</svg>
